<svg width="500" height="500" viewBox="0 0 500 500" fill="none" xmlns="http://www.w3.org/2000/svg">
<g id="Style=Alternate, Color=Dark">
<g id="NYKnicks_P_pms">
<g id="Group 3">
<mask id="mask0_5465_23865" style="mask-type:luminance" maskUnits="userSpaceOnUse" x="0" y="63" width="500" height="374">
<path id="Clip 2" fill-rule="evenodd" clip-rule="evenodd" d="M0.052002 436.948H499.208V63H0.052002V436.948Z" fill="white"/>
</mask>
<g mask="url(#mask0_5465_23865)">
<path id="Fill 1" fill-rule="evenodd" clip-rule="evenodd" d="M250.201 437C185.009 437 131.932 383.896 131.921 318.632C131.921 307.256 133.583 295.931 136.761 285.08C105.884 295.609 67.2794 320.565 67.2794 320.565L0 253.118L73.6047 91.2829L113.689 75L118.004 63L156.375 80.1295L160.342 88.3541C189.646 82.2091 189.402 79.2257 248.518 78.2509C301.206 77.3964 336.544 87.7801 336.565 87.7879L339.676 80.9823L360.198 67.5347L425.504 90.5609L450.534 144.714L446.92 152.135L456.507 158.572L499.208 252.589L431.045 322.842C431.045 322.842 385.976 292.75 363.895 286.024C366.948 296.586 368.47 307.489 368.47 318.632C368.47 383.896 315.43 437 250.201 437Z" fill="#FFFFFE"/>
</g>
</g>
<path id="Fill 4" fill-rule="evenodd" clip-rule="evenodd" d="M448.432 165.931L448.348 165.744L448.171 165.626L433.267 155.601L438.809 145.004L438.965 144.682L438.83 144.345L418.328 99.3814L418.198 99.0983L417.902 98.997L362.65 79.3006L362.275 79.1525L361.943 79.4019L347.288 90.6071L347.132 90.7232L347.049 90.9162L344.547 97.0664C344.547 97.0664 321.63 91.2954 287.97 87.9407C284.562 87.5952 275.402 86.8464 260.795 85.6871L259.367 85.5807L257.887 85.4724L257.539 85.4491L257.315 85.6828L246.395 96.5704L246.41 85.3997C246.41 85.3997 215.429 87.1511 195.145 89.9128C174.862 92.665 154.905 97.6932 154.905 97.6932L151.125 89.5804L124.081 77.1934L120.757 86.21L119.786 83.8691L81.5295 99.2412L12.5615 250.858L69.0607 307.488C69.0607 307.488 102.639 287.282 136.294 273.874C136.294 273.874 141.684 271.801 147.318 269.925C162.409 264.924 201.59 253.241 239.576 253.241H240.012C241.539 253.241 243.03 253.275 244.551 253.303C270.36 254.029 300.464 259.707 321.256 263.968C351.271 270.138 363.356 274.513 363.356 274.513C394.788 286.233 429.492 309.355 429.492 309.355L486.693 250.404L448.432 165.931Z" fill="#005E9C"/>
<path id="Fill 5" fill-rule="evenodd" clip-rule="evenodd" d="M442.272 171.186L387.321 134.447L377.75 107.586L394.772 113.646L401.658 130.443L427.535 138.743L412.429 105.341L363.574 87.9805L354.631 94.9237L370.859 147.734L423.146 184.713L436.549 218.144L414.786 208.317L407.335 187.507L380.674 179.659L394.928 226.664C399.316 228.283 403.673 229.959 408.003 231.719C419.875 236.523 431.497 241.837 442.875 247.669C450.732 251.686 458.485 255.971 466.102 260.477L477.45 248.801L442.272 171.186Z" fill="#E77C31"/>
<path id="Fill 6" fill-rule="evenodd" clip-rule="evenodd" d="M71.5017 196.077L89.8166 179.711L94.1843 184.81L76.1073 236.869C85.9948 232.487 96.0588 228.517 106.289 224.887L119.395 181.967L108.091 163.265L131.527 140.98L145.2 95.3234L128.385 87.749L113.258 130.801L89.0173 151.673L111.129 95.8818L87.3815 105.354L21.9395 249.019L32.1696 259.312C38.2353 255.768 44.41 252.362 50.6574 249.1L71.5017 196.077Z" fill="#E77C31"/>
<path id="Fill 7" fill-rule="evenodd" clip-rule="evenodd" d="M237.349 93.6318L217.267 94.6846L207.827 202.459C216.363 201.65 224.948 201.107 233.583 200.809L237.349 93.6318Z" fill="#E77C31"/>
<path id="Fill 8" fill-rule="evenodd" clip-rule="evenodd" d="M296.87 180.088L273.564 178.692L269.815 112.692L289.574 113.659L287.253 95.4714L260.727 93.5693L248.82 105.434L248.805 187.979L261.273 200.752C274.131 201.146 286.857 202.115 299.456 203.636L296.87 180.088Z" fill="#E77C31"/>
<path id="Fill 9" fill-rule="evenodd" clip-rule="evenodd" d="M164.829 136.167L173.231 177.138L167.82 208.175C175.932 206.616 184.158 205.272 192.456 204.178L192.487 204.168L205.469 96.0977L186.831 98.8126L180.73 134.202L173.787 100.899L151.878 106.39L121.416 219.848C130.177 217.112 139.077 214.635 148.071 212.452L164.829 136.167Z" fill="#E77C31"/>
<path id="Fill 10" fill-rule="evenodd" clip-rule="evenodd" d="M326.792 174.134L333.335 165.255L342.91 173.157L351.734 213.333C360.987 215.662 370.138 218.291 379.132 221.215L362.701 162.285L345.747 148.393L355.41 135.507L347.376 105.598L326.911 101.038L334.945 131.172L322.216 148.222L312.786 98.6621L293.837 96.2666C293.837 96.2666 303.351 168.916 307.827 204.729C316.427 205.938 324.901 207.427 333.356 209.15L326.792 174.134Z" fill="#E77C31"/>
<path id="Fill 11" fill-rule="evenodd" clip-rule="evenodd" d="M210.767 222.93C210.767 222.93 218.664 218.307 234.477 216.545L233.942 204.088C225.286 204.379 216.686 204.928 208.149 205.733C208.886 210.594 210.003 217.86 210.767 222.93Z" fill="#B6B7B6"/>
<path id="Fill 12" fill-rule="evenodd" clip-rule="evenodd" d="M260.966 215.79C267.395 216.546 274.26 218.637 280.305 220.342C285.757 221.665 291.641 224.013 296.454 226.145L299.108 206.985C286.401 205.406 274.411 204.465 261.412 204.062C261.205 207.789 261.205 213.022 260.966 215.79Z" fill="#B6B7B6"/>
<path id="Fill 13" fill-rule="evenodd" clip-rule="evenodd" d="M177.853 246.165C185.206 240.696 189.641 235.067 197.368 230.348C195.894 223.384 193.931 214.378 192.518 207.489C184.106 208.614 175.745 209.995 167.488 211.61C170.656 221.917 174.685 235.751 177.853 246.165Z" fill="#B6B7B6"/>
<path id="Fill 14" fill-rule="evenodd" clip-rule="evenodd" d="M302.863 230.018C310.03 234.164 315.617 238.864 322.035 245.09L323.302 246.072L333.413 212.606C324.689 210.797 316.219 209.243 307.355 207.993L302.863 230.018Z" fill="#B6B7B6"/>
<path id="Fill 15" fill-rule="evenodd" clip-rule="evenodd" d="M334.716 259.073L358.817 264.743L379.094 224.651C369.743 221.6 360.733 219.1 351.147 216.688L334.716 259.073Z" fill="#B6B7B6"/>
<path id="Fill 16" fill-rule="evenodd" clip-rule="evenodd" d="M140.984 264.742C147.277 262.42 156.037 259.265 164.268 257.077L148.601 215.69C139.171 217.977 130.914 220.397 121.717 223.314C127.528 237.172 134.071 251.441 140.984 264.742Z" fill="#B6B7B6"/>
<path id="Fill 17" fill-rule="evenodd" clip-rule="evenodd" d="M104.674 279.643C106.061 278.452 119.749 272.549 129.075 268.589C121.982 255.694 113.424 241.481 106.289 228.384C96.0849 232.024 86.8262 235.798 76.9438 240.184L104.674 279.643Z" fill="#B6B7B6"/>
<path id="Fill 18" fill-rule="evenodd" clip-rule="evenodd" d="M70.5719 297.749C74.9179 295.125 79.5243 292.448 84.603 289.513L52.6411 251.786C46.5546 254.95 40.5719 258.242 34.6731 261.688L70.5719 297.749Z" fill="#B6B7B6"/>
<path id="Fill 19" fill-rule="evenodd" clip-rule="evenodd" d="M371.57 269.712C390.753 277.164 417.559 292.21 428.23 299.382C433.144 294.673 459.856 266.63 463.511 262.785C441.333 249.753 418.026 238.674 393.775 229.754L371.57 269.712Z" fill="#B6B7B6"/>
<path id="Fill 20" fill-rule="evenodd" clip-rule="evenodd" d="M257.279 215.16L248.134 214.84L247.968 192.568L257.492 202.459L257.279 215.16Z" fill="#B6B7B6"/>
<path id="Fill 21" fill-rule="evenodd" clip-rule="evenodd" d="M250.201 210.738C190.685 210.759 142.421 259.042 142.421 318.632C142.421 378.191 190.685 426.492 250.201 426.492C309.748 426.492 357.997 378.191 357.997 318.632C357.997 259.042 309.748 210.759 250.201 210.738Z" fill="#005E9C"/>
<path id="Fill 22" fill-rule="evenodd" clip-rule="evenodd" d="M256.853 218.819C248.565 221.719 240.594 225.916 232.706 229.58C227.321 226.358 224.247 225.54 220.601 223.195C231.933 219.064 244.136 218.45 256.853 218.819Z" fill="#E77C31"/>
<path id="Fill 23" fill-rule="evenodd" clip-rule="evenodd" d="M334.051 264.619C308.653 239.005 270.558 240.86 238.247 231.812C238.247 231.812 257.254 222.733 267.078 220.235C293.489 224.744 319.055 240.553 334.051 264.619Z" fill="#E77C31"/>
<path id="Fill 24" fill-rule="evenodd" clip-rule="evenodd" d="M191.287 268.469C166.885 305.939 163.573 352.09 183.004 392.534C157.912 371.434 142.962 330.553 154.215 290.879C163.463 277.964 175.324 266.557 191.287 268.469Z" fill="#E77C31"/>
<path id="Fill 25" fill-rule="evenodd" clip-rule="evenodd" d="M217.407 295.142C230.561 334.264 233.459 377.587 267.52 416.992C240.968 422.375 214.671 414.414 193.707 401.13C167.716 363.191 170.157 306.606 196.153 269.836C208.792 273.479 215.683 290.037 217.407 295.142Z" fill="#E77C31"/>
<path id="Fill 26" fill-rule="evenodd" clip-rule="evenodd" d="M199.144 265.684C203.096 260.128 207.562 254.863 212.557 249.955C267.774 265.559 320.431 322.873 329.46 379.167C326.838 383.419 320.519 389.343 316.267 393.574C302.551 405.932 287.43 412.325 272.931 415.775C247.137 389.021 238.652 354.273 229.538 319.994C222.549 293.706 217.683 273.875 199.17 265.84L199.144 265.684Z" fill="#E77C31"/>
<path id="Fill 27" fill-rule="evenodd" clip-rule="evenodd" d="M328.168 265.455C301.497 241.899 264.336 244.909 233.158 233.935C227.145 237.638 221.272 241.993 216.229 246.512C271.466 263.844 321.557 317.872 333.496 373.711C342.163 361.206 347.376 346.664 349.511 331.234C350.85 307.572 350.613 286.024 328.168 265.455Z" fill="#E77C31"/>
<path id="Fill 28" fill-rule="evenodd" clip-rule="evenodd" d="M208.019 248.227C202.68 253.342 198.687 258.391 194.528 264.29L194.429 264.238C179.785 260.969 168.261 268.531 159.013 277.964C163.411 266.795 172.676 253.54 182.496 244.885C191.531 245.272 198.116 245.147 208.019 248.227Z" fill="#E77C31"/>
<path id="Fill 29" fill-rule="evenodd" clip-rule="evenodd" d="M211.919 244.799C217.138 240.145 222.211 236.073 228.484 232.307L214.328 225.271C204.903 229.125 194.813 234.14 187.907 240.501C198.604 241.748 203.184 242.416 211.919 244.799Z" fill="#E77C31"/>
</g>
</g>
</svg>
